<?xml version="1.0" encoding="UTF-8"?>
<svg width="503px" height="72px" viewBox="0 0 503 72" version="1.1" xmlns="http://www.w3.org/2000/svg" xmlns:xlink="http://www.w3.org/1999/xlink">
    <!-- Generator: Sketch 49.3 (51167) - http://www.bohemiancoding.com/sketch -->
    <title>Page 1</title>
    <desc>Created with Sketch.</desc>
    <defs>
        <polygon id="path-1" points="0.0907802388 0.0237836418 38.1862585 0.0237836418 38.1862585 38.1196523 0.0907802388 38.1196523"></polygon>
        <polygon id="path-3" points="9.00895522e-05 0.12882806 70.7411092 0.12882806 70.7411092 70.8703577 9.00895522e-05 70.8703577"></polygon>
    </defs>
    <g id="miniJustin" stroke="none" stroke-width="1" fill="none" fill-rule="evenodd">
        <g id="home" transform="translate(-432.000000, -166.000000)">
            <g id="Page-1" transform="translate(432.000000, 166.000000)">
                <path d="M343.289512,35.0559769 L371.861414,35.0559769 L371.861414,34.8634856 C371.861414,28.142805 366.393578,22.6749697 359.672597,22.6749697 L355.476827,22.6749697 C348.756446,22.6749697 343.289512,28.142805 343.289512,34.8634856 L343.289512,35.0559769 Z M360.873191,55.0564581 L355.476827,55.0564581 C346.656159,55.0564581 339.479925,47.8802247 339.479925,39.0583554 L339.479925,34.8634856 C339.479925,26.0416163 346.656159,18.8653829 355.476827,18.8653829 L359.672597,18.8653829 C368.494166,18.8653829 375.6704,26.0416163 375.6704,34.8634856 L375.6704,36.9610706 C375.6704,38.0124157 374.817552,38.8655638 373.765907,38.8655638 L343.289512,38.8655638 L343.289512,39.0583554 C343.289512,45.7784354 348.756446,51.2462706 355.476827,51.2462706 L360.873191,51.2462706 C364.929323,51.2462706 368.707378,49.2369733 370.981239,45.8721285 C371.569223,45.0000617 372.753,44.7673303 373.625667,45.3592187 C374.498034,45.9481041 374.726862,47.1321811 374.137977,48.003347 C371.155111,52.4195369 366.195682,55.0564581 360.873191,55.0564581 Z" id="Fill-1" fill="#FEFEFE"></path>
                <path d="M228.820796,24.5794028 C222.840952,24.5794028 217.976717,29.4439383 217.976717,35.4237825 L217.976717,38.4970374 C217.976717,44.4768816 222.840952,49.3417174 228.820796,49.3417174 L231.894351,49.3417174 C237.873595,49.3417174 242.739031,44.4768816 242.739031,38.4970374 L242.739031,35.4237825 C242.739031,29.4439383 237.873595,24.5794028 231.894351,24.5794028 L228.820796,24.5794028 Z M231.894351,56.9608912 L228.820796,56.9608912 C218.639776,56.9608912 210.357543,48.6777574 210.357543,38.4970374 L210.357543,35.4237825 C210.357543,25.2427622 218.639776,16.9608297 228.820796,16.9608297 L231.894351,16.9608297 C242.074771,16.9608297 250.358205,25.2427622 250.358205,35.4237825 L250.358205,38.4970374 C250.358205,48.6777574 242.074771,56.9608912 231.894351,56.9608912 Z" id="Fill-3" fill="#FEFEFE"></path>
                <path d="M146.618914,24.5794028 C140.63907,24.5794028 135.774535,29.4439383 135.774535,35.4237825 L135.774535,38.4970374 C135.774535,44.4768816 140.63907,49.3417174 146.618914,49.3417174 L149.692169,49.3417174 C155.671713,49.3417174 160.53715,44.4768816 160.53715,38.4970374 L160.53715,35.4237825 C160.53715,29.4439383 155.671713,24.5794028 149.692169,24.5794028 L146.618914,24.5794028 Z M149.692169,56.9608912 L146.618914,56.9608912 C136.437894,56.9608912 128.155661,48.6777574 128.155661,38.4970374 L128.155661,35.4237825 C128.155661,25.2427622 136.437894,16.9608297 146.618914,16.9608297 L149.692169,16.9608297 C159.872889,16.9608297 168.156023,25.2427622 168.156023,35.4237825 L168.156023,38.4970374 C168.156023,48.6777574 159.872889,56.9608912 149.692169,56.9608912 Z" id="Fill-5" fill="#FEFEFE"></path>
                <path d="M261.383545,55.0563079 C260.331599,55.0563079 259.478451,54.2031599 259.478451,53.1512142 L259.478451,20.7700261 C259.478451,19.7180805 260.331599,18.865533 261.383545,18.865533 C262.43549,18.865533 263.288638,19.7180805 263.288638,20.7700261 L263.288638,53.1512142 C263.288638,54.2031599 262.43549,55.0563079 261.383545,55.0563079" id="Fill-7" fill="#FEFEFE"></path>
                <path d="M263.288578,22.6749697 L263.288578,32.7827172 C263.288578,35.9340497 265.851626,38.4970975 269.002658,38.4970975 L284.241006,38.4970975 C287.392038,38.4970975 289.955386,35.9340497 289.955386,32.7827172 L289.955386,28.38935 C289.955386,25.2380175 287.392038,22.6749697 284.241006,22.6749697 L263.288578,22.6749697 Z M284.241006,42.3066844 L269.002658,42.3066844 C263.751639,42.3066844 259.478391,38.0340372 259.478391,32.7827172 L259.478391,20.769876 C259.478391,19.7179303 260.331539,18.8653829 261.383485,18.8653829 L284.241006,18.8653829 C289.492326,18.8653829 293.765273,23.13803 293.765273,28.38935 L293.765273,32.7827172 C293.765273,38.0340372 289.492326,42.3066844 284.241006,42.3066844 Z" id="Fill-9" fill="#FEFEFE"></path>
                <path d="M301.384117,55.0563079 C300.332171,55.0563079 299.479023,54.2031599 299.479023,53.1512142 L299.479023,36.0083736 C299.479023,26.5555772 307.170569,18.865533 316.622464,18.865533 L331.860511,18.865533 C332.912757,18.865533 333.765605,19.7180805 333.765605,20.7700261 C333.765605,21.8219718 332.912757,22.6748196 331.860511,22.6748196 L316.622464,22.6748196 C309.270556,22.6748196 303.28861,28.6561653 303.28861,36.0083736 L303.28861,53.1512142 C303.28861,54.2031599 302.435762,55.0563079 301.384117,55.0563079" id="Fill-11" fill="#FEFEFE"></path>
                <path d="M406.004393,38.8654136 L392.015287,38.8654136 C386.532437,38.8654136 382.071503,34.4050799 382.071503,28.9222297 C382.071503,23.277819 386.532437,18.817185 392.015287,18.817185 L406.706791,18.817185 C412.851499,18.817185 417.851469,23.8168548 417.851469,29.9621635 C417.851469,31.0138088 416.998321,31.9144041 415.946976,31.9144041 C414.89443,31.9144041 414.042183,31.1081026 414.042183,30.0558566 L414.042183,29.9621635 C414.042183,25.9168423 410.751211,22.6264715 406.706791,22.6264715 L392.015287,22.6264715 C388.632425,22.6264715 385.88109,25.3772059 385.88109,28.7594679 C385.88109,32.3035909 388.632425,35.0558267 392.015287,35.0558267 L406.004393,35.0558267 C407.056339,35.0558267 407.909487,35.9086745 407.909487,36.9609205 C407.909487,38.0122656 407.056339,38.8654136 406.004393,38.8654136" id="Fill-13" fill="#FEFEFE"></path>
                <path d="M407.237839,55.1047161 L392.546035,55.1047161 C386.401026,55.1047161 381.401056,50.1047459 381.401056,43.9582361 C381.401056,42.9065907 382.254204,42.007497 383.30615,42.007497 C384.358096,42.007497 385.210943,42.8137984 385.210943,43.8657441 L385.210943,43.9582361 C385.210943,48.0035573 388.501314,51.2945286 392.546035,51.2945286 L407.237839,51.2945286 C410.620101,51.2945286 413.371736,48.5428934 413.371736,45.1615322 C413.371736,41.6174092 410.620101,38.8654737 407.237839,38.8654737 L393.248133,38.8654737 C392.196487,38.8654737 391.34364,38.0123256 391.34364,36.9609805 C391.34364,35.9087346 392.196487,35.0558868 393.248133,35.0558868 L407.237839,35.0558868 C412.720689,35.0558868 417.181023,39.5168211 417.181023,44.999371 C417.181023,50.644082 412.720689,55.1047161 407.237839,55.1047161" id="Fill-15" fill="#FEFEFE"></path>
                <path d="M448.043541,38.8654136 L434.054135,38.8654136 C428.571585,38.8654136 424.110651,34.4050799 424.110651,28.9222297 C424.110651,23.277819 428.571585,18.817185 434.054135,18.817185 L448.74594,18.817185 C454.890648,18.817185 459.890618,23.8168548 459.890618,29.9621635 C459.890618,31.0138088 459.03747,31.9144041 457.985524,31.9144041 C456.933879,31.9144041 456.081331,31.1081026 456.081331,30.0558566 L456.081331,29.9621635 C456.081331,25.9168423 452.79096,22.6264715 448.74594,22.6264715 L434.054135,22.6264715 C430.671573,22.6264715 427.920238,25.3772059 427.920238,28.7594679 C427.920238,32.3035909 430.671573,35.0558267 434.054135,35.0558267 L448.043541,35.0558267 C449.095487,35.0558267 449.948034,35.9086745 449.948034,36.9609205 C449.948034,38.0122656 449.095487,38.8654136 448.043541,38.8654136" id="Fill-17" fill="#FEFEFE"></path>
                <path d="M449.276987,55.1047161 L434.585183,55.1047161 C428.440175,55.1047161 423.440205,50.1047459 423.440205,43.9582361 C423.440205,42.9065907 424.292752,42.007497 425.345298,42.007497 C426.396644,42.007497 427.249491,42.8137984 427.249491,43.8657441 L427.249491,43.9582361 C427.249491,48.0035573 430.540463,51.2945286 434.585183,51.2945286 L449.276987,51.2945286 C452.659249,51.2945286 455.410584,48.5428934 455.410584,45.1615322 C455.410584,41.6174092 452.659249,38.8654737 449.276987,38.8654737 L435.287281,38.8654737 C434.235636,38.8654737 433.382187,38.0123256 433.382187,36.9609805 C433.382187,35.9087346 434.235636,35.0558868 435.287281,35.0558868 L449.276987,35.0558868 C454.759537,35.0558868 459.219571,39.5168211 459.219571,44.999371 C459.219571,50.644082 454.759537,55.1047161 449.276987,55.1047161" id="Fill-19" fill="#FEFEFE"></path>
                <g id="Group-23" transform="translate(464.561791, 17.889082)">
                    <mask id="mask-2" fill="white">
                        <use xlink:href="#path-1"></use>
                    </mask>
                    <g id="Clip-22"></g>
                    <path d="M17.5104961,3.83337051 C10.0063367,3.83337051 3.9003671,9.93964036 3.9003671,17.4441001 L3.9003671,20.6993359 C3.9003671,28.2034953 10.0063367,34.3097651 17.5104961,34.3097651 L20.7666328,34.3097651 C28.2710925,34.3097651 34.3767617,28.2034953 34.3767617,20.6993359 L34.3767617,17.4441001 C34.3767617,9.93964036 28.2710925,3.83337051 20.7666328,3.83337051 L17.5104961,3.83337051 Z M20.7666328,38.1196523 L17.5104961,38.1196523 C7.905148,38.1196523 0.0907802388,30.3052845 0.0907802388,20.6993359 L0.0907802388,17.4441001 C0.0907802388,7.8378511 7.905148,0.0237836418 17.5104961,0.0237836418 L20.7666328,0.0237836418 C30.3722811,0.0237836418 38.1863486,7.8378511 38.1863486,17.4441001 L38.1863486,20.6993359 C38.1863486,30.3052845 30.3722811,38.1196523 20.7666328,38.1196523 Z" id="Fill-21" fill="#FEFEFE" mask="url(#mask-2)"></path>
                </g>
                <g id="Group-26" transform="translate(0.000000, 0.171470)">
                    <mask id="mask-4" fill="white">
                        <use xlink:href="#path-3"></use>
                    </mask>
                    <g id="Clip-25"></g>
                    <path d="M23.9801271,9.7208729 C16.0459402,9.7208729 9.59222501,16.1745881 9.59222501,24.108775 L9.59222501,46.8903207 C9.59222501,54.8242072 16.0459402,61.2779224 23.9801271,61.2779224 L46.7616728,61.2779224 C54.695259,61.2779224 61.1495749,54.8242072 61.1495749,46.8903207 L61.1495749,24.108775 C61.1495749,16.1745881 54.695259,9.7208729 46.7616728,9.7208729 L23.9801271,9.7208729 Z M46.7616728,70.8703577 L23.9801271,70.8703577 C10.7567826,70.8703577 9.00895522e-05,60.1118633 9.00895522e-05,46.8903207 L9.00895522e-05,24.108775 C9.00895522e-05,10.8872323 10.7567826,0.12873797 23.9801271,0.12873797 L46.7616728,0.12873797 C59.9844167,0.12873797 70.7411092,10.8872323 70.7411092,24.108775 L70.7411092,46.8903207 C70.7411092,60.1118633 59.9844167,70.8703577 46.7616728,70.8703577 Z" id="Fill-24" fill="#FEFEFE" mask="url(#mask-4)"></path>
                </g>
                <path d="M35.3706597,23.6805493 C28.7598884,23.6805493 23.3809415,29.0600968 23.3809415,35.6708681 C23.3809415,42.2816395 28.7598884,47.6611869 35.3706597,47.6611869 C41.981431,47.6611869 47.3609785,42.2816395 47.3609785,35.6708681 C47.3609785,29.0600968 41.981431,23.6805493 35.3706597,23.6805493 M35.3706597,52.4569541 C26.1151594,52.4569541 18.5845737,44.9260681 18.5845737,35.6708681 C18.5845737,26.4162687 26.1151594,18.8847821 35.3706597,18.8847821 C44.6273612,18.8847821 52.1567457,26.4162687 52.1567457,35.6708681 C52.1567457,44.9260681 44.6273612,52.4569541 35.3706597,52.4569541" id="Fill-27" fill="#FEFEFE"></path>
                <path d="M46.6299318,28.0086316 C45.7098172,28.0086316 44.7894023,27.656982 44.0867038,26.9545838 C42.681607,25.5497874 42.681607,23.2732244 44.0867038,21.8687283 L47.2158142,18.7396179 C48.6209109,17.3345211 50.896573,17.3345211 52.30197,18.7396179 C53.707367,20.1447146 53.707367,22.4209773 52.30197,23.826074 L49.1734602,26.9545838 C48.471062,27.656982 47.5500464,28.0086316 46.6299318,28.0086316" id="Fill-29" fill="#FEFEFE"></path>
                <path d="M173.673798,25.4802983 L203.939083,25.4802983 C206.02856,25.4802983 207.722243,23.7863144 207.722243,21.6968374 L207.722243,21.6451861 C207.722243,19.5557091 206.02856,17.8617252 203.939083,17.8617252 L173.673798,17.8617252 C171.584321,17.8617252 169.890337,19.5557091 169.890337,21.6451861 L169.890337,21.6968374 C169.890337,23.7863144 171.584321,25.4802983 173.673798,25.4802983" id="Fill-31" fill="#FEFEFE"></path>
                <path d="M184.997184,22.9264397 L184.997184,53.4010325 C184.997184,55.4905096 186.691168,57.1844934 188.780645,57.1844934 L188.832296,57.1844934 C190.921773,57.1844934 192.615757,55.4905096 192.615757,53.4010325 L192.615757,22.9264397 C192.615757,20.8369627 190.921773,19.1429788 188.832296,19.1429788 L188.780645,19.1429788 C186.691168,19.1429788 184.997184,20.8369627 184.997184,22.9264397" id="Fill-33" fill="#FEFEFE"></path>
                <path d="M94.6403059,25.1799998 L119.95547,25.1799998 C122.044947,25.1799998 123.738931,23.4860159 123.738931,21.3965389 L123.738931,21.3448876 C123.738931,19.2554106 122.044947,17.5614267 119.95547,17.5614267 L94.6403059,17.5614267 C92.5508288,17.5614267 90.856845,19.2554106 90.856845,21.3448876 L90.856845,21.3965389 C90.856845,23.4860159 92.5508288,25.1799998 94.6403059,25.1799998" id="Fill-35" fill="#FEFEFE"></path>
                <path d="M94.6403059,42.3062339 L114.847092,42.3062339 C116.936569,42.3062339 118.630253,40.61225 118.630253,38.522773 L118.630253,38.4711217 C118.630253,36.3816447 116.936569,34.6879611 114.847092,34.6879611 L94.6403059,34.6879611 C92.5508288,34.6879611 90.856845,36.3816447 90.856845,38.4711217 L90.856845,38.522773 C90.856845,40.61225 92.5508288,42.3062339 94.6403059,42.3062339" id="Fill-37" fill="#FEFEFE"></path>
                <path d="M90.8569651,21.7252457 L90.8569651,55.1025239 C90.8569651,57.1920009 92.550949,58.8859848 94.640426,58.8859848 L94.6920773,58.8859848 C96.7815543,58.8859848 98.4755382,57.1920009 98.4755382,55.1025239 L98.4755382,21.7252457 C98.4755382,19.6357687 96.7815543,17.9417848 94.6920773,17.9417848 L94.640426,17.9417848 C92.550949,17.9417848 90.8569651,19.6357687 90.8569651,21.7252457" id="Fill-39" fill="#FEFEFE"></path>
            </g>
        </g>
    </g>
</svg>