<?xml version="1.0" encoding="UTF-8"?>
<svg width="503px" height="69px" viewBox="0 0 503 69" version="1.1" xmlns="http://www.w3.org/2000/svg" xmlns:xlink="http://www.w3.org/1999/xlink">
    <!-- Generator: Sketch 50 (54983) - http://www.bohemiancoding.com/sketch -->
    <title>logo-white copy</title>
    <desc>Created with Sketch.</desc>
    <defs>
        <polygon id="path-1" points="0 0.971111111 67.0424593 0.971111111 67.0424593 69 0 69"></polygon>
    </defs>
    <g id="miniJustin" stroke="none" stroke-width="1" fill="none" fill-rule="evenodd">
        <g id="logo-white-copy">
            <path d="M114.312871,18 C110.870807,18 107.753855,19.3940911 105.488389,21.6395551 C103.20228,19.3940911 100.041464,18 96.5116712,18 C89.6120612,18 84,23.5943691 84,30.472228 L84,51.3115746 C84,53.3461244 85.6565257,55 87.70009,55 C89.7436544,55 91.3975998,53.3461244 91.3975998,51.3115746 L91.3975998,30.472228 C91.3975998,27.6608968 93.6914491,25.3742788 96.689709,25.3742788 C99.5073507,25.3742788 101.79862,27.6608968 101.79862,30.472228 L101.79862,51.3115746 C101.79862,53.3461244 103.457726,55 105.49871,55 C107.542274,55 109.1988,53.3461244 109.1988,51.3115746 L109.1988,30.472228 C109.1988,27.6608968 111.492649,25.3742788 114.488329,25.3742788 C117.308551,25.3742788 119.6024,27.6608968 119.6024,30.472228 L119.6024,51.3115746 C119.6024,53.3461244 121.256346,55 123.29991,55 C125.343474,55 127,53.3461244 127,51.3115746 L127,30.472228 C127,23.5943691 121.387939,18 114.312871,18" id="Fill-1" fill="#4B332C"></path>
            <path d="M206.312871,18 C202.870807,18 199.753855,19.3940911 197.488389,21.6395551 C195.20228,19.3940911 192.041464,18 188.511671,18 C181.612061,18 176,23.5943691 176,30.472228 L176,51.3115746 C176,53.3461244 177.659106,55 179.70009,55 C181.743654,55 183.3976,53.3461244 183.3976,51.3115746 L183.3976,30.472228 C183.3976,27.6608968 185.691449,25.3742788 188.689709,25.3742788 C191.509931,25.3742788 193.8012,27.6608968 193.8012,30.472228 L193.8012,51.3115746 C193.8012,53.3461244 195.457726,55 197.50129,55 C199.542274,55 201.20138,53.3461244 201.20138,51.3115746 L201.20138,30.472228 C201.20138,27.6608968 203.492649,25.3742788 206.488329,25.3742788 C209.308551,25.3742788 211.6024,27.6608968 211.6024,30.472228 L211.6024,51.3115746 C211.6024,53.3461244 213.258926,55 215.29991,55 C217.343474,55 219,53.3461244 219,51.3115746 L219,30.472228 C219,23.5943691 213.387939,18 206.312871,18" id="Fill-3" fill="#4B332C"></path>
            <path d="M140.374302,32.3812529 C141.151874,27.7666246 145.173532,24.2374942 150.005581,24.2374942 L153.994419,24.2374942 C158.826468,24.2374942 162.850651,27.7666246 163.628222,32.3812529 L140.374302,32.3812529 Z M153.994419,17 L150.005581,17 C140.63181,17 133,24.6313027 133,34.0094998 L133,37.9930246 C133,47.3686973 140.63181,55 150.005581,55 L155.13553,55 C160.793117,55 166.064443,52.1979008 169.235318,47.5024912 C170.353707,45.8464758 169.916955,43.5972231 168.263354,42.4789079 C166.607228,41.3580682 164.355302,41.7947917 163.239437,43.4533316 C161.414164,46.1494054 158.384666,47.7625058 155.13553,47.7625058 L150.005581,47.7625058 C145.173532,47.7625058 141.151874,44.2333754 140.374302,39.6187471 L167.37975,39.6187471 C169.379219,39.6187471 171,38.0005979 171,36.0012622 L171,34.0094998 C171,24.6313027 163.370715,17 153.994419,17 Z" id="Fill-5" fill="#4B332C"></path>
            <path d="M378.314707,35.211249 L350.685293,35.211249 L350.685293,35.0315001 C350.685293,28.7153242 355.971657,23.5799985 362.471033,23.5799985 L366.528967,23.5799985 C373.025773,23.5799985 378.314707,28.7153242 378.314707,35.0315001 L378.314707,35.211249 Z M366.528967,20 L362.471033,20 C353.941405,20 347,26.740583 347,35.0315001 L347,38.9709964 C347,47.2569205 353.941405,54 362.471033,54 L367.688009,54 C372.835597,54 377.631104,51.5234599 380.517145,47.3742566 C381.085102,46.5554005 380.864087,45.4444526 380.021147,44.8902269 C379.178207,44.3335047 378.034584,44.5531977 377.464058,45.3720537 C375.26419,48.5326382 371.612306,50.422498 367.688009,50.422498 L362.471033,50.422498 C355.971657,50.422498 350.685293,45.2846758 350.685293,38.9709964 L350.685293,38.7912475 L380.157354,38.7912475 C381.17505,38.7912475 382,37.9873706 382,37.0012483 L382,35.0315001 C382,26.740583 375.058595,20 366.528967,20 Z" id="Fill-7" fill="#4B332C"></path>
            <path d="M254.762506,37.4592081 C254.762506,43.1395163 250.140304,47.762025 244.460373,47.762025 L241.542151,47.762025 C235.86222,47.762025 231.240019,43.1395163 231.240019,37.4592081 L231.240019,34.5407919 C231.240019,28.8579591 235.86222,24.237975 241.542151,24.237975 L244.460373,24.237975 C250.140304,24.237975 254.762506,28.8579591 254.762506,34.5407919 L254.762506,37.4592081 Z M244.460373,17 L241.542151,17 C231.871122,17 224,24.8691204 224,34.5407919 L224,37.4592081 C224,47.1308796 231.871122,55 241.542151,55 L244.460373,55 C254.131402,55 262,47.1308796 262,37.4592081 L262,34.5407919 C262,24.8691204 254.131402,17 244.460373,17 Z" id="Fill-9" fill="#4B332C"></path>
            <path d="M297.443342,33.0742345 C297.443342,36.035098 295.052395,38.4417358 292.110836,38.4417358 L277.886684,38.4417358 C274.947605,38.4417358 272.556658,36.035098 272.556658,33.0742345 L272.556658,23.577502 L292.110836,23.577502 C295.052395,23.577502 297.443342,25.9866363 297.443342,28.9474998 L297.443342,33.0742345 Z M292.110836,20 L270.778329,20 C269.796156,20 269,20.8013804 269,21.7875028 L269,33.0742345 L269,52.2100007 C269,53.1986196 269.796156,54 270.778329,54 C271.760502,54 272.556658,53.1986196 272.556658,52.2100007 L272.556658,40.1867979 C274.044799,41.3227109 275.880174,42.0217343 277.886684,42.0217343 L292.110836,42.0217343 C297.011781,42.0217343 301,38.0073427 301,33.0742345 L301,28.9474998 C301,24.0118951 297.011781,20 292.110836,20 Z" id="Fill-11" fill="#4B332C"></path>
            <path d="M338.221809,20 L324.00124,20 C315.179726,20 308,27.2274029 308,36.1050004 L308,52.2100007 C308,53.1986196 308.798574,54 309.778191,54 C310.760288,54 311.556382,53.1986196 311.556382,52.2100007 L311.556382,36.1050004 C311.556382,29.1996476 317.13896,23.5799985 324.00124,23.5799985 L338.221809,23.5799985 C339.203906,23.5799985 340,22.7761216 340,21.7899993 C340,20.8013804 339.203906,20 338.221809,20" id="Fill-13" fill="#4B332C"></path>
            <path d="M410.2979,20 L396.191747,20 C390.927457,20 386.643045,24.1784093 386.643045,29.4674088 C386.643045,34.6045115 390.927457,38.7854109 396.191747,38.7854109 L397.375766,38.7854109 L409.624234,38.7854109 L410.808253,38.7854109 C414.056649,38.7854109 416.697725,41.3626776 416.697725,44.6844881 C416.697725,47.8544016 414.056649,50.4316684 410.808253,50.4316684 L396.7021,50.4316684 C392.815763,50.4316684 389.656678,47.3464186 389.656678,43.556467 L389.656678,43.4718031 C389.656678,42.4832284 388.840114,41.7312143 387.827063,41.7312143 C386.819116,41.7312143 386,42.5703823 386,43.556467 C386,49.3160978 390.799869,54 396.7021,54 L410.808253,54 C416.075095,54 420.354404,49.8215907 420.354404,44.5325912 C420.354404,39.3954885 416.075095,35.2145891 410.808253,35.2145891 L409.624234,35.2145891 L397.375766,35.2145891 L396.191747,35.2145891 C392.943351,35.2145891 390.302275,32.6348323 390.302275,29.3155119 C390.302275,26.1455984 392.943351,23.5683316 396.191747,23.5683316 L410.2979,23.5683316 C414.181686,23.5683316 417.343322,26.6510913 417.343322,30.4410429 L417.343322,30.530687 C417.343322,31.5167716 418.162438,32.2712758 419.172937,32.2712758 C420.180884,32.2712758 421,31.4271276 421,30.4410429 C421,24.6839022 416.200131,20 410.2979,20" id="Fill-15" fill="#4B332C"></path>
            <path d="M451.2979,20 L437.191747,20 C431.927457,20 427.643045,24.1784093 427.643045,29.4674088 C427.643045,34.6045115 431.927457,38.7854109 437.191747,38.7854109 L438.375766,38.7854109 L450.624234,38.7854109 L451.808253,38.7854109 C455.056649,38.7854109 457.700277,41.3626776 457.700277,44.6844881 C457.700277,47.8544016 455.056649,50.4316684 451.808253,50.4316684 L437.7021,50.4316684 C433.815763,50.4316684 430.656678,47.3464186 430.656678,43.556467 L430.656678,43.4718031 C430.656678,42.4832284 429.840114,41.7312143 428.827063,41.7312143 C427.819116,41.7312143 427,42.5703823 427,43.556467 C427,49.3160978 431.799869,54 437.7021,54 L451.808253,54 C457.075095,54 461.354404,49.8215907 461.354404,44.5325912 C461.354404,39.3954885 457.075095,35.2145891 451.808253,35.2145891 L450.624234,35.2145891 L438.375766,35.2145891 L437.191747,35.2145891 C433.943351,35.2145891 431.302275,32.6348323 431.302275,29.3155119 C431.302275,26.1455984 433.943351,23.5683316 437.191747,23.5683316 L451.2979,23.5683316 C455.181686,23.5683316 458.343322,26.6510913 458.343322,30.4410429 L458.343322,30.530687 C458.343322,31.5167716 459.162438,32.2712758 460.172937,32.2712758 C461.180884,32.2712758 462,31.4271276 462,30.4410429 C462,24.6839022 457.200131,20 451.2979,20" id="Fill-17" fill="#4B332C"></path>
            <path d="M499.298709,38.0795201 C499.298709,45.3680246 493.369934,51.2989676 486.080921,51.2989676 L482.916498,51.2989676 C475.630066,51.2989676 469.698709,45.3680246 469.698709,38.0795201 L469.698709,34.917899 C469.698709,27.6293945 475.630066,21.6984515 482.916498,21.6984515 L486.080921,21.6984515 C493.369934,21.6984515 499.298709,27.6293945 499.298709,34.917899 L499.298709,38.0795201 Z M486.080921,18 L482.916498,18 C473.58842,18 466,25.5878906 466,34.917899 L466,38.0795201 C466,47.4095285 473.58842,55 482.916498,55 L486.080921,55 C495.408999,55 503,47.4095285 503,38.0795201 L503,34.917899 C503,25.5878906 495.408999,18 486.080921,18 Z" id="Fill-19" fill="#4B332C"></path>
            <g id="Group-23">
                <mask id="mask-2" fill="white">
                    <use xlink:href="#path-1"></use>
                </mask>
                <g id="Clip-22"></g>
                <path d="M57.9531259,45.9386667 C57.9531259,53.567 51.8356444,59.7744444 44.3178667,59.7744444 L22.7266074,59.7744444 C15.2063111,59.7744444 9.09134815,53.567 9.09134815,45.9386667 L9.09134815,24.0324444 C9.09134815,16.399 15.2063111,10.1966667 22.7266074,10.1966667 L44.3178667,10.1966667 C51.8356444,10.1966667 57.9531259,16.399 57.9531259,24.0324444 L57.9531259,45.9386667 Z M44.3178667,0.968555556 L22.7266074,0.968555556 C10.1944593,0.968555556 -0.000503703704,11.316 -0.000503703704,24.0324444 L-0.000503703704,45.9386667 C-0.000503703704,58.6551111 10.1944593,69 22.7266074,69 L44.3178667,69 C56.8500148,69 67.0424593,58.6551111 67.0424593,45.9386667 L67.0424593,24.0324444 C67.0424593,11.316 56.8500148,0.968555556 44.3178667,0.968555556 Z" id="Fill-21" fill="#4B332C" mask="url(#mask-2)"></path>
            </g>
            <path d="M33.4127178,46.4477541 C26.9500153,46.4477541 21.687863,41.3431858 21.687863,35.0684002 C21.687863,28.7961367 26.9500153,23.6915684 33.4127178,23.6915684 C39.878019,23.6915684 45.1401712,28.7961367 45.1401712,35.0684002 C45.1401712,41.3431858 39.878019,46.4477541 33.4127178,46.4477541 M44.9972485,19.0006114 L42.250535,21.6663864 C39.6961174,20.0749919 36.6687557,19.1393225 33.4127178,19.1393225 C24.3644146,19.1393225 17,26.2867269 17,35.0684002 C17,43.8525956 24.3644146,51 33.4127178,51 C42.4636197,51 49.8280342,43.8525956 49.8280342,35.0684002 C49.8280342,31.9108313 48.863956,28.9701561 47.2242434,26.4935325 L49.9709569,23.8277575 C51.3430144,22.493609 51.3430144,20.3347599 49.9709569,19.0006114 C48.5963008,17.6664629 46.369306,17.6664629 44.9972485,19.0006114" id="Fill-24" fill="#4B332C"></path>
        </g>
    </g>
</svg>