<?xml version="1.0" encoding="UTF-8"?>
<svg width="629px" height="254px" viewBox="0 0 629 254" version="1.1" xmlns="http://www.w3.org/2000/svg" xmlns:xlink="http://www.w3.org/1999/xlink">
    <!-- Generator: Sketch 50 (54983) - http://www.bohemiancoding.com/sketch -->
    <title>printing</title>
    <desc>Created with Sketch.</desc>
    <defs></defs>
    <g id="miniJustin" stroke="none" stroke-width="1" fill="none" fill-rule="evenodd">
        <g id="printing" transform="translate(-369.000000, -241.000000)" fill-rule="nonzero">
            <g transform="translate(369.000000, 241.000000)">
                <rect id="Rectangle-path" fill="#FFE1E7" x="454" y="94" width="128" height="146"></rect>
                <path d="M589.969009,253 L447.030991,253 C443.70576,253 441,250.337773 441,247.066041 L441,26.9339592 C441,23.6617562 443.70576,21 447.030991,21 L589.969009,21 C593.29424,21 596,23.6617561 596,26.9339592 L596,247.066041 C596,250.337773 593.29424,253 589.969009,253 Z M447.030991,22.929314 C444.786723,22.929314 442.960862,24.7257992 442.960862,26.9339593 L442.960862,247.066041 C442.960862,249.274201 444.786723,251.070686 447.030991,251.070686 L589.969009,251.070686 C592.213277,251.070686 594.039138,249.274201 594.039138,247.066041 L594.039138,26.9339592 C594.039138,24.7257991 592.213277,22.9293139 589.969009,22.9293139 L447.030991,22.9293139 Z" id="Shape" fill="#FF93C0"></path>
                <rect id="Rectangle-path" fill="#FFE1E7" x="33" y="33" width="150" height="147"></rect>
                <path d="M189.897064,254 L25.1024562,254 C21.7376177,254 19,251.309022 19,248.000457 L19,25.0000141 C19,21.6914497 21.7376177,19 25.1024562,19 L189.897064,19 C193.262382,19 196,21.6914497 196,25.0000141 L196,248.000457 C196,251.309022 193.262382,254 189.897064,254 Z M25.1024562,20.9310173 C22.8203888,20.9310173 20.9641412,22.7564321 20.9641412,25.0000141 L20.9641412,248.000457 C20.9641412,250.243568 22.8203888,252.068983 25.1024562,252.068983 L189.897064,252.068983 C192.179132,252.068983 194.035859,250.243568 194.035859,248.000457 L194.035859,25.0000141 C194.035859,22.7564321 192.179132,20.9310173 189.897064,20.9310173 L25.1024562,20.9310173 Z" id="Shape" fill="#FF93C0"></path>
                <path d="M16.1024562,245 C12.7376177,245 10,242.309022 10,239.000457 L10,16.0000141 C10,12.6914497 12.7376177,10 16.1024562,10 L180.897064,10 C184.262382,10 187,12.6914497 187,16.0000141 C187,16.5332125 186.560274,16.9655227 186.017929,16.9655227 C185.475585,16.9655227 185.035859,16.5332125 185.035859,16.0000141 C185.035859,13.7564321 183.179132,11.9310173 180.897064,11.9310173 L16.1024562,11.9310173 C13.8203888,11.9310173 11.9641412,13.7564321 11.9641412,16.0000141 L11.9641412,239.000457 C11.9641412,241.243568 13.8203888,243.068983 16.1024562,243.068983 C16.6448008,243.068983 17.0845267,243.500821 17.0845267,244.034491 C17.0845267,244.568161 16.6448008,245 16.1024562,245 Z" id="Shape" fill="#FF93C0"></path>
                <path d="M6.10245616,235 C2.73761769,235 0,232.309022 0,229.000457 L0,6.00001407 C0,2.69144973 2.73761769,0 6.10245616,0 L170.897064,0 C174.262382,0 177,2.69144973 177,6.00001407 C177,6.53321247 176.560274,6.96552273 176.017929,6.96552273 C175.475585,6.96552273 175.035859,6.53321247 175.035859,6.00001407 C175.035859,3.75643214 173.179132,1.93101733 170.897064,1.93101733 L6.10245616,1.93101733 C3.8203888,1.93101733 1.96414116,3.75643214 1.96414116,6.00001407 L1.96414116,229.000457 C1.96414116,231.243568 3.8203888,233.068983 6.10245616,233.068983 C6.64480081,233.068983 7.08452674,233.500821 7.08452674,234.034491 C7.08452674,234.568161 6.64480081,235 6.10245616,235 Z" id="Shape" fill="#FF93C0"></path>
                <circle id="Oval" fill="#FF93C0" cx="242" cy="126" r="9"></circle>
                <circle id="Oval" fill="#FF93C0" cx="280" cy="126" r="9"></circle>
                <circle id="Oval" fill="#FF93C0" cx="318" cy="126" r="9"></circle>
                <circle id="Oval" fill="#FF93C0" cx="356" cy="126" r="9"></circle>
                <g id="Group" transform="translate(407.000000, 62.000000)">
                    <path d="M220.476366,123.02697 C220.476366,126.680962 217.455599,129.643128 213.729223,129.643128 L8.30692959,129.643128 C4.58061342,129.643128 1.5598163,126.680962 1.5598163,123.02697 L1.5598163,8.03054216 C1.5598163,4.37653575 4.58061333,1.41436972 8.30692959,1.41436972 L213.729223,1.41436972 C217.455599,1.41436972 220.476366,4.37653575 220.476366,8.03054216 L220.476366,123.02697 Z" id="Shape" fill="#FFE1E7"></path>
                    <path d="M213.729103,130.606804 L8.30734923,130.606804 C4.04527614,130.606804 0.577485457,127.20632 0.577485457,123.02697 L0.577485457,8.03040991 C0.577485457,3.85105988 4.04527614,0.451046293 8.30734923,0.451046293 L213.729103,0.451046293 C217.991176,0.451046293 221.458967,3.85105998 221.458967,8.03040991 L221.458967,123.02697 C221.458967,127.20632 217.991176,130.606804 213.729103,130.606804 Z M8.30734923,2.37751678 C5.12830128,2.37751678 2.54208723,4.91353471 2.54208723,8.03040981 L2.54208723,123.02697 C2.54208723,126.144316 5.12830128,128.680334 8.30734923,128.680334 L213.729103,128.680334 C216.908151,128.680334 219.494365,126.144316 219.494365,123.02697 L219.494365,8.03040991 C219.494365,4.9135348 216.908151,2.37751688 213.729103,2.37751688 L8.30734923,2.37751688 Z" id="Shape" fill="#FF93C0"></path>
                </g>
                <g id="Group" transform="translate(440.000000, 163.000000)">
                    <path d="M1.93453104,1.26859606 L155.101583,1.26859606 L155.101583,83.9826227 C155.101583,86.7359384 152.838432,88.9679645 150.046684,88.9679645 L6.98948977,88.9679645 C4.19774246,88.9679645 1.93453104,86.7359384 1.93453104,83.9826227 L1.93453104,1.26859606 Z" id="Shape" fill="#FFFFFF"></path>
                    <path d="M150.046924,89.9357359 L6.98948977,89.9357359 C3.6614807,89.9357359 0.953460706,87.264995 0.953460706,83.9827999 L0.953460706,1.26827119 C0.953460706,0.733366935 1.39234008,0.300529258 1.93471071,0.300529258 L155.101703,0.300529258 C155.644074,0.300529258 156.082953,0.733366935 156.082953,1.26827119 L156.082953,83.9827999 C156.082953,87.2649949 153.374933,89.9357359 150.046924,89.9357359 Z M2.91596071,2.23601313 L2.91596071,83.9827999 C2.91596071,86.1980217 4.74334719,88.0002521 6.98948977,88.0002521 L150.046924,88.0002521 C152.293066,88.0002521 154.120453,86.1980217 154.120453,83.9827999 L154.120453,2.23601313 L2.91596071,2.23601313 Z" id="Shape" fill="#FF93C0"></path>
                </g>
                <rect id="Rectangle-path" fill="#FFE1E7" x="454" y="165" width="128" height="75"></rect>
                <circle id="Oval" fill="#FF93C0" cx="297" cy="75" r="9"></circle>
                <g id="Group" transform="translate(251.000000, 10.000000)" fill="#FF93C0">
                    <path d="M62.9441489,51.2345197 C60.9398686,51.2345197 58.9365442,50.4822048 57.4072889,48.9780454 C51.0169132,42.689634 40.6160655,42.689634 34.2256898,48.9780454 C31.1671791,51.9863643 26.2100024,51.9863643 23.1524476,48.9780454 C20.0944149,45.9697266 20.0944149,41.0919054 23.1524476,38.0835865 C29.2063871,32.1271339 37.2555269,28.8465711 45.8164894,28.8465711 C54.3774518,28.8465711 62.4270695,32.1271339 68.481009,38.0835865 C71.5385638,41.0919053 71.5385638,45.9697265 68.481009,48.9780454 C66.9517537,50.4822048 64.9484292,51.2345197 62.9441489,51.2345197 Z" id="Shape"></path>
                    <path d="M83.237367,31.2685547 C81.2330867,31.2685547 79.2297623,30.5162399 77.7005069,29.0120805 C69.1844664,20.632704 57.8612865,16.0177228 45.8164894,16.0177228 C33.7726479,16.0177228 22.4489902,20.6327041 13.9324718,29.0120805 C10.874917,32.0203993 5.91726236,32.0213397 2.85970745,29.0120805 C-0.198325281,26.0037616 -0.198325281,21.1259404 2.85970745,18.1176215 C14.3334233,6.82819733 29.5891789,0.610315333 45.8164894,0.610315333 C62.0437998,0.610315333 77.2990775,6.82819723 88.7742271,18.1176215 C91.8317819,21.1259403 91.8317819,26.0037615 88.7742271,29.0120805 C87.2449718,30.5162399 85.2416473,31.2685547 83.237367,31.2685547 Z" id="Shape"></path>
                </g>
            </g>
        </g>
    </g>
</svg>