<?xml version="1.0" encoding="UTF-8"?>
<svg width="72px" height="56px" viewBox="0 0 72 56" version="1.1" xmlns="http://www.w3.org/2000/svg" xmlns:xlink="http://www.w3.org/1999/xlink">
    <!-- Generator: Sketch 50 (54983) - http://www.bohemiancoding.com/sketch -->
    <title>arrow-left</title>
    <desc>Created with Sketch.</desc>
    <defs></defs>
    <g id="miniJustin" stroke="none" stroke-width="1" fill="none" fill-rule="evenodd">
        <g id="Preview" transform="translate(-38.000000, -27.000000)" fill="#FFFFFF" fill-rule="nonzero">
            <g id="arrow-left" transform="translate(38.000000, 27.000000)">
                <path d="M69.0915937,24.6575342 L2.90840625,24.6575342 C1.3021875,24.6575342 0,25.9823313 0,27.6164384 C0,29.2506885 1.3021875,30.5753425 2.90840625,30.5753425 L69.0915937,30.5753425 C70.6979531,30.5753425 72,29.2506885 72,27.6164384 C72,25.9823313 70.6979531,24.6575342 69.0915937,24.6575342 Z" id="Shape"></path>
                <path d="M7.00783029,27.6164384 L29.7250079,4.94510307 C30.8586002,3.81380535 30.8586002,1.97966597 29.7250079,0.848368246 C28.5914157,-0.282789415 26.7535562,-0.282789415 25.619964,0.848368246 L0.850194194,25.5680009 C-0.283398065,26.6992986 -0.283398065,28.533438 0.850194194,29.6647357 L25.619964,54.3843684 C26.1866899,54.9500873 26.9296932,55.2328767 27.6725561,55.2328767 C28.415419,55.2328767 29.1584223,54.9500873 29.7251483,54.3843684 C30.8587405,53.2530707 30.8587405,51.4189313 29.7251483,50.2876336 L7.00783029,27.6164384 Z" id="Shape"></path>
            </g>
        </g>
    </g>
</svg>