<?xml version="1.0" encoding="UTF-8"?>
<svg width="26px" height="67px" viewBox="0 0 26 67" version="1.1" xmlns="http://www.w3.org/2000/svg" xmlns:xlink="http://www.w3.org/1999/xlink">
    <!-- Generator: Sketch 50 (54983) - http://www.bohemiancoding.com/sketch -->
    <title>caret</title>
    <desc>Created with Sketch.</desc>
    <defs></defs>
    <g id="miniJustin" stroke="none" stroke-width="1" fill="none" fill-rule="evenodd">
        <g id="Preview" transform="translate(-662.000000, -239.000000)" fill="#909090" fill-rule="nonzero">
            <g id="caret" transform="translate(662.000000, 239.000000)">
                <path d="M22.9153625,37.0961187 C24.618905,37.0961187 26,35.6864276 26,33.9476126 C26,32.2087976 24.618905,30.7991065 22.9153625,30.7991065 L16.0880316,30.7991065 L16.0812434,13.2657057 C16.0812434,9.42326887 19.1440827,6.29701221 22.9085743,6.29701221 C24.6121168,6.29701221 25.9932118,4.88732108 25.9932118,3.1485061 C25.9932118,1.40969113 24.6121168,0 22.9085743,0 C18.9394685,0 15.3822645,1.82739294 12.9966059,4.69904041 C10.6107416,1.82739294 7.05374334,2.98286419e-15 3.08463748,2.98286419e-15 C1.38109502,2.98286419e-15 0,1.40969113 0,3.1485061 C0,4.88732108 1.38109502,6.29701221 3.08463748,6.29701221 C6.8493347,6.29701221 9.91196842,9.42326887 9.91196842,13.2654958 L9.91875662,30.7991065 L3.09142568,30.7991065 C1.38788322,30.7991065 0.00678819898,32.2087976 0.00678819898,33.9476126 C0.00678819898,35.6864276 1.38788322,37.0961187 3.09142568,37.0961187 L9.91875662,37.0961187 L9.91196842,53.7345042 C9.91196842,57.576941 6.84912905,60.7029878 3.08463748,60.7029878 C1.38109502,60.7029878 0,62.1126789 0,63.8514939 C0,65.5903089 1.38109502,67 3.08463748,67 C7.05374334,67 10.6109473,65.1726071 12.9966059,62.3009596 C15.3824702,65.1726071 18.9394685,67 22.9085743,67 C24.6121168,67 25.9932118,65.5903089 25.9932118,63.8514939 C25.9932118,62.1126789 24.6121168,60.7029878 22.9085743,60.7029878 C19.1438771,60.7029878 16.0812434,57.5767311 16.0812434,53.7345042 L16.0880316,37.0961187 L22.9153625,37.0961187 Z" id="Shape"></path>
            </g>
        </g>
    </g>
</svg>