<?xml version="1.0" encoding="utf-8"?>
<!-- Generator: Adobe Illustrator 17.1.0, SVG Export Plug-In . SVG Version: 6.00 Build 0)  -->
<!DOCTYPE svg PUBLIC "-//W3C//DTD SVG 1.1//EN" "http://www.w3.org/Graphics/SVG/1.1/DTD/svg11.dtd">
<svg version="1.1" id="圖層_1" xmlns="http://www.w3.org/2000/svg" xmlns:xlink="http://www.w3.org/1999/xlink" x="0px" y="0px"
	 viewBox="0 0 180 180" enable-background="new 0 0 180 180" xml:space="preserve">
<g>
	<path fill="#3C3C3C" d="M90,179.9913788c-49.6208458,0-89.9907227-40.3698883-89.9907227-89.9913788
		S40.3791542,0.0086263,90,0.0086263S179.9907227,40.3785019,179.9907227,90S139.6208496,179.9913788,90,179.9913788z M90,1.3420055
		C41.1142044,1.3420055,1.3426565,41.1135559,1.3426565,90c0,48.885788,39.7715492,88.6579895,88.657341,88.6579895
		c48.8864441,0,88.6573486-39.7722015,88.6573486-88.6579895C178.6573486,41.1135559,138.8864441,1.3420055,90,1.3420055z"/>
	<g>
		<path fill="#3C3C3C" d="M117.3336182,135.0015411H62.6657257c-1.8379517,0-3.3334465-1.4948425-3.3334465-3.3334351V86.6489716
			c0-1.8379517,1.4954948-3.3334427,3.3334465-3.3334427h54.6678925c1.8386078,0,3.3334503,1.495491,3.3334503,3.3334427v45.0191345
			C120.6670685,133.5066986,119.172226,135.0015411,117.3336182,135.0015411z M62.6657257,84.6489029
			c-1.1029015,0-2.0000687,0.897171-2.0000687,2.0000687v45.0191345c0,1.10289,0.8971672,2.000061,2.0000687,2.000061h54.6678925
			c1.1029053,0,2.0000687-0.897171,2.0000687-2.000061V86.6489716c0-1.1028976-0.8971634-2.0000687-2.0000687-2.0000687H62.6657257z
			"/>
		<path fill="#3C3C3C" d="M111.0000687,84.6489029c-0.3684998,0-0.666687-0.2981873-0.666687-0.666687V61.1220551
			c0-11.0960846-9.0276566-20.1237373-20.123085-20.1237373h-0.4205933c-11.0960846,0-20.1237335,9.0276527-20.1237335,20.1237373
			v22.8601608c0,0.3684998-0.2981873,0.666687-0.6666946,0.666687c-0.3684998,0-0.666687-0.2981873-0.666687-0.666687V61.1220551
			c0-11.8317871,9.6253281-21.457119,21.4571152-21.457119h0.4205933c11.831131,0,21.4564667,9.6253319,21.4564667,21.457119
			v22.8601608C111.6667633,84.3507156,111.368576,84.6489029,111.0000687,84.6489029z"/>
	</g>
</g>
</svg>
